<svg xmlns="http://www.w3.org/2000/svg" width="76.43" height="58.258" viewBox="0 0 76.43 58.258">
  <g id="Group_45" data-name="Group 45" transform="translate(-794.5 -10911.437)">
    <g id="discord" transform="translate(794.5 10911.437)">
      <path id="Path_25" data-name="Path 25" d="M64.7,65.7a63.033,63.033,0,0,0-15.557-4.825.236.236,0,0,0-.25.118,43.9,43.9,0,0,0-1.937,3.979,58.182,58.182,0,0,0-17.473,0,40.282,40.282,0,0,0-1.967-3.979.245.245,0,0,0-.25-.118A62.851,62.851,0,0,0,11.709,65.7a.223.223,0,0,0-.1.088C1.7,80.592-1.016,95.031.315,109.292a.263.263,0,0,0,.1.179A63.382,63.382,0,0,0,19.5,119.118a.247.247,0,0,0,.268-.088,45.3,45.3,0,0,0,3.9-6.351.242.242,0,0,0-.133-.337,41.752,41.752,0,0,1-5.962-2.842.245.245,0,0,1-.024-.406c.4-.3.8-.613,1.184-.928a.237.237,0,0,1,.247-.033,45.2,45.2,0,0,0,38.411,0,.236.236,0,0,1,.25.03c.383.315.783.631,1.187.931a.245.245,0,0,1-.021.406,39.168,39.168,0,0,1-5.965,2.839.244.244,0,0,0-.129.34,50.885,50.885,0,0,0,3.9,6.348.242.242,0,0,0,.268.091A63.169,63.169,0,0,0,76,109.47a.245.245,0,0,0,.1-.176c1.594-16.487-2.669-30.808-11.3-43.5A.194.194,0,0,0,64.7,65.7ZM25.54,100.609c-3.766,0-6.869-3.457-6.869-7.7s3.043-7.7,6.869-7.7c3.856,0,6.929,3.488,6.869,7.7C32.409,97.151,29.366,100.609,25.54,100.609Zm25.4,0c-3.766,0-6.869-3.457-6.869-7.7s3.043-7.7,6.869-7.7c3.856,0,6.929,3.488,6.869,7.7C57.805,97.151,54.793,100.609,50.936,100.609Z" transform="translate(0.001 -60.871)" fill="#fee6d7"/>
    </g>
  </g>
</svg>
