<svg xmlns="http://www.w3.org/2000/svg" width="127.5" height="98" viewBox="0 0 127.5 98">
  <g id="Group_52" data-name="Group 52" transform="translate(-275.211 -28.321)">
    <g id="Group_51" data-name="Group 51" transform="translate(-10564.902 -104.321)">
      <g id="download" transform="translate(10840.113 132.641)">
        <path id="Path_96" data-name="Path 96" d="M10.244-199.588c-7.484,4.756-8.292,18.431-1.454,24.971l2.369,2.23H124.552l2.369-2.23c6.838-6.54,6.03-20.215-1.454-24.971-2.046-1.338-4.846-1.412-57.612-1.412S12.29-200.926,10.244-199.588Z" transform="translate(-4.113 201)" fill="#63342e"/>
        <path id="Path_97" data-name="Path 97" d="M96.818-122Z" transform="translate(-33.064 166.571)" fill="#63342e"/>
        <path id="Path_98" data-name="Path 98" d="M10.244-199.588c-7.484,4.756-8.292,18.431-1.454,24.971l2.369,2.23H124.552l2.369-2.23c6.838-6.54,6.03-20.215-1.454-24.971-2.046-1.338-4.846-1.412-57.612-1.412S12.29-200.926,10.244-199.588Z" transform="translate(-4.098 234.781)" fill="#63342e"/>
        <path id="Path_99" data-name="Path 99" d="M10.244-199.588c-7.484,4.756-8.292,18.431-1.454,24.971l2.369,2.23H124.552l2.369-2.23c6.838-6.54,6.03-20.215-1.454-24.971-2.046-1.338-4.846-1.412-57.612-1.412S12.29-200.926,10.244-199.588Z" transform="translate(-4.113 201)" fill="#63342e"/>
        <path id="Path_100" data-name="Path 100" d="M10.244-199.588c-7.484,4.756-8.292,18.431-1.454,24.971l2.369,2.23H124.552l2.369-2.23c6.838-6.54,6.03-20.215-1.454-24.971-2.046-1.338-4.846-1.412-57.612-1.412S12.29-200.926,10.244-199.588Z" transform="translate(-4.113 270.387)" fill="#63342e"/>
      </g>
    </g>
  </g>
</svg>
