<svg xmlns="http://www.w3.org/2000/svg" width="33.788" height="33.788" viewBox="0 0 33.788 33.788">
  <g id="Group_51" data-name="Group 51" transform="translate(-205 -4946)">
    <g id="Group_46" data-name="Group 46">
      <g id="instagram" transform="translate(205 4946)">
        <path id="Path_19" data-name="Path 19" d="M23.722,0H10.066A10.077,10.077,0,0,0,0,10.066V23.722A10.077,10.077,0,0,0,10.066,33.788H23.722A10.077,10.077,0,0,0,33.788,23.722V10.066A10.077,10.077,0,0,0,23.722,0Zm6.667,23.722a6.667,6.667,0,0,1-6.667,6.667H10.066A6.667,6.667,0,0,1,3.4,23.722V10.066A6.667,6.667,0,0,1,10.066,3.4H23.722a6.667,6.667,0,0,1,6.667,6.667V23.722Z" fill="#fff"/>
        <path id="Path_20" data-name="Path 20" d="M141.739,133a8.739,8.739,0,1,0,8.739,8.739A8.749,8.749,0,0,0,141.739,133Zm0,14.079a5.34,5.34,0,1,1,5.34-5.34A5.34,5.34,0,0,1,141.739,147.079Z" transform="translate(-124.845 -124.845)" fill="#fff"/>
        <circle id="Ellipse_1" data-name="Ellipse 1" cx="2.094" cy="2.094" r="2.094" transform="translate(23.556 6.127)" fill="#fff"/>
      </g>
    </g>
  </g>
</svg>
