<svg xmlns="http://www.w3.org/2000/svg" xmlns:xlink="http://www.w3.org/1999/xlink" width="698" height="360.815" viewBox="0 0 698 360.815">
  <defs>
    <clipPath id="clip-path">
      <rect id="Rectangle_38" data-name="Rectangle 38" width="422.847" height="360.815" fill="none"/>
    </clipPath>
    <clipPath id="clip-path-2">
      <path id="Path_44" data-name="Path 44" d="M355.594,348.477v38.894c8.171-2.264,14.214-4.188,21.773-6.933V341.544c-7.559,2.745-13.6,4.669-21.773,6.933" transform="translate(-355.594 -341.544)" fill="none"/>
    </clipPath>
  </defs>
  <g id="Group_51" data-name="Group 51" transform="translate(-206 -8685.643)">
    <text id="COMMUNITY_MARKETING_LIQUIDITY_TEAM_DEVELOPMENT" data-name="COMMUNITY
MARKETING
LIQUIDITY
TEAM
DEVELOPMENT" transform="translate(734 8782.612)" fill="#5d2e28" font-size="24" font-family="Jost-Medium, Jost" font-weight="500"><tspan x="0" y="0">COMMUNITY</tspan><tspan x="0" y="48">MARKETING</tspan><tspan x="0" y="96">LIQUIDITY</tspan><tspan x="0" y="144">TEAM</tspan><tspan x="0" y="192">DEVELOPMENT</tspan></text>
    <g id="Group_26" data-name="Group 26" transform="translate(206 8685.643)">
      <g id="Group_21" data-name="Group 21">
        <g id="Group_20" data-name="Group 20" clip-path="url(#clip-path)">
          <path id="Path_32" data-name="Path 32" d="M211.423,0C94.659,0,0,47.329,0,105.712V254.8c0,.489.008.978.021,1.465,0,.16.012.319.018.478.011.329.025.657.042.984.011.188.024.377.036.564.019.3.04.6.064.9q.025.3.053.591c.027.29.056.581.088.871.021.2.044.4.068.593.034.292.073.584.113.876.027.192.052.384.08.575.045.308.095.613.145.919.029.174.056.348.086.522.065.366.134.731.206,1.1.021.112.041.225.064.336q.145.715.308,1.425c.028.125.06.248.09.372.083.35.167.7.257,1.049.045.175.093.35.14.524q.119.448.245.894c.054.188.11.377.166.566q.126.427.258.851.09.289.184.578.137.42.279.841c.065.189.13.379.2.568.1.289.207.577.313.865.066.178.13.356.2.533q.183.479.375.956c.057.144.112.288.171.432q.281.692.581,1.381c.019.042.038.084.057.126q.274.626.562,1.248c.072.156.148.31.221.466.143.3.286.6.435.9.088.179.178.356.267.534q.209.416.425.832c.1.185.194.369.293.554q.216.407.438.811c.1.185.2.369.307.552.153.273.309.544.467.817.1.178.205.356.31.534.17.288.344.575.519.862.1.158.191.317.289.476.221.357.447.712.675,1.068.056.087.11.174.166.261q.428.662.876,1.319c.084.125.171.248.256.372.216.315.432.628.654.941.116.164.235.327.353.491.2.272.393.545.594.817q.194.262.392.524.293.391.591.781c.136.177.273.353.41.529q.3.388.614.777c.138.172.276.345.415.517.217.267.436.532.657.8.133.161.266.322.4.483q.377.447.762.891c.11.126.217.253.326.379q.552.631,1.118,1.258l.185.2q.479.526.968,1.05c.136.146.275.29.412.435.256.27.514.541.774.81.157.163.317.324.476.487.247.251.495.5.745.752l.506.5q.373.367.75.734l.52.5q.388.37.782.739c.171.158.339.318.511.476q.427.4.862.788l.459.416q.566.506,1.142,1.009l.208.183q.681.593,1.378,1.181l.423.353q.491.411.988.82c.18.149.363.3.545.443q.445.362.9.721l.6.471q.439.346.883.69l.613.471q.451.345.909.689c.2.152.4.3.607.455q.48.357.966.712c.192.141.383.281.576.421q.556.4,1.119.8c.149.106.3.213.447.318q.788.555,1.59,1.1l.33.223q.642.439,1.292.872c.194.13.392.259.588.389q.53.35,1.063.7c.22.143.443.286.665.429q.509.326,1.021.651.346.219.695.436.509.32,1.024.636l.7.432q.529.322,1.062.641c.228.137.454.273.683.409q.581.343,1.167.685l.6.353q.811.469,1.632.932c.053.03.105.061.158.09q.9.509,1.817,1.011c.194.106.389.211.583.316q.628.343,1.261.683l.72.382q.578.306,1.159.611l.765.4q.57.294,1.145.587.39.2.782.4.579.292,1.164.581c.259.128.517.257.778.384.409.2.822.4,1.235.6q.361.175.723.349c.488.233.98.465,1.473.7l.5.238q1,.464,2,.92l.482.217q.769.347,1.546.692c.247.11.5.217.745.327.435.19.87.38,1.308.569l.829.355q.626.266,1.254.531l.859.359q.627.261,1.26.52c.169.069.335.139.5.207.1.042.208.083.311.125q1.045.424,2.1.841l.3.118q1.2.472,2.413.934l.685.259q.913.346,1.834.687l.742.274q1.134.416,2.279.825l.21.076q1.246.444,2.508.878l.723.247q.945.322,1.9.641l.762.255q1.226.406,2.462.8l.111.036q1.291.414,2.6.818l.279.088.274.082q2.019.623,4.068,1.223l.513.149q2.039.594,4.106,1.166l.532.147q2.072.569,4.174,1.115l.522.135q2.124.549,4.276,1.074l.283.071.213.05q1.88.456,3.78.893l.618.142q1.889.431,3.8.845l.628.135q1.926.412,3.872.809l.557.111q2,.4,4.014.786l.12.023.3.055q1.812.341,3.641.666l.361.065q1.868.33,3.754.642l.687.114q1.848.3,3.711.59l.665.1q1.926.293,3.865.569l.061.01.2.026q1.782.252,3.577.487l.645.085q1.826.237,3.664.458l.744.088q1.885.223,3.782.43l.223.024q1.839.2,3.691.38c.141.014.282.03.424.043l.25.024q1.851.179,3.712.342l.751.065q1.922.166,3.857.316l.048,0q1.92.146,3.85.273l.75.05q1.887.122,3.784.229l.273.017.435.021q1.974.107,3.959.2l.1.005q2.011.089,4.034.158l.75.026q1.954.065,3.919.112l.748.017q2.04.045,4.091.073h.034q2.7.034,5.412.034V255.384l.256.176V360.815q.837,0,1.689,0l.6,0,1.129-.008.69-.007,1.061-.013.735-.011,1.029-.017.777-.014,1.007-.021.791-.018,1.022-.026.774-.02,1.054-.03.756-.023.286-.009.587-.019,1.138-.039.858-.032,1.125-.043.85-.035,1.133-.049.834-.038,1.137-.054.818-.041c.38-.019.757-.039,1.135-.059l.8-.042,1.166-.067.736-.042c.429-.026.852-.052,1.275-.08l.6-.037c.619-.041,1.233-.082,1.838-.125v-.268l.118.42q1.485-.1,2.943-.216l.894-.069q1.023-.08,2.035-.161l.5-.04.472-.041q1.112-.093,2.21-.189l.757-.066q1.449-.13,2.877-.267l.525-.051q1.167-.114,2.321-.232l.894-.093q1.017-.106,2.024-.217l.828-.092c.919-.1,1.836-.209,2.744-.317l.13-.016q1.3-.155,2.585-.32l.822-.106q.974-.126,1.94-.257l.841-.114q1.132-.156,2.255-.318l.339-.049.052-.007q2.271-.332,4.514-.69l.031-.005q2.258-.361,4.5-.752l.125-.022q2.176-.382,4.339-.792l.252-.048q2.1-.4,4.2-.83l.343-.071q2.059-.423,4.12-.874l.407-.09q2.031-.448,4.073-.925l.468-.11q2.019-.475,4.055-.978l.5-.126q2.026-.5,4.075-1.039l.244-.062.483-.128q.943-.248,1.89-.5l.8-.216q1.326-.358,2.665-.728v-.008c8.033-2.226,14.015-4.128,21.4-6.8h0l.212-.078.162-.058v0q1.415-.517,2.807-1.039l.511-.192q1.5-.566,2.972-1.14l.57-.224q1.485-.582,2.942-1.172l.349-.142q1.419-.578,2.809-1.162l.309-.129q1.02-.431,2.025-.864c.256-.111.507-.223.762-.334l.605-.264q1.378-.606,2.728-1.218l.4-.182q1.246-.569,2.466-1.146l.453-.212q1.311-.622,2.592-1.252l.548-.271q1.309-.647,2.592-1.3l.028-.014q1.27-.651,2.508-1.313l.52-.277q1.213-.65,2.4-1.307l.421-.236q1.1-.614,2.176-1.236l.328-.188q1.159-.674,2.289-1.355l.494-.3q1.137-.691,2.249-1.389l.182-.116q.651-.412,1.294-.826c.23-.149.455-.3.683-.449s.428-.28.64-.421q1.006-.667,1.991-1.341l.171-.116c.707-.487,1.4-.978,2.091-1.472.193-.138.383-.277.574-.415q.793-.574,1.569-1.153c.178-.133.359-.267.536-.4q1-.752,1.967-1.513l.287-.229q.831-.659,1.645-1.326l.555-.459c.175-.145.354-.289.528-.436q.618-.52,1.225-1.044c.013-.012.027-.024.042-.035.605-.524,1.2-1.052,1.788-1.583.125-.113.25-.225.375-.339q.858-.78,1.692-1.571l.277-.265q.765-.733,1.51-1.473l.259-.255q.8-.806,1.581-1.622c.114-.118.226-.238.339-.356.15-.159.3-.316.452-.476q.551-.59,1.089-1.185c.039-.042.076-.086.114-.128q.733-.813,1.442-1.636c.082-.1.165-.19.247-.286q.719-.839,1.412-1.69l.281-.346q.7-.867,1.381-1.744l.122-.161q.648-.843,1.274-1.7l.21-.286c.043-.061.089-.121.133-.181.281-.388.552-.78.826-1.171.153-.219.31-.435.461-.655q.681-.992,1.336-2v-.581c.288-.443.567-.883.841-1.322l.221-.356q.345-.555.675-1.108l.135-.224q.385-.647.749-1.29l.182-.323q.292-.52.573-1.038c.037-.069.077-.138.114-.207.024-.044.047-.088.07-.134.094-.174.184-.347.275-.521s.173-.329.257-.493.177-.348.264-.523.163-.324.244-.486.17-.35.254-.524.156-.324.232-.485.162-.348.241-.522.149-.323.221-.484.155-.35.232-.525.141-.319.209-.479.148-.35.22-.525c.067-.159.134-.319.2-.478.071-.175.139-.35.208-.525.063-.159.127-.318.188-.478.067-.175.132-.351.2-.527.05-.134.1-.269.151-.4l.016-.047c.218-.6.422-1.2.617-1.8.018-.056.037-.111.055-.166q.285-.895.536-1.792c.018-.062.035-.123.052-.184q.247-.89.459-1.784c.016-.068.033-.134.049-.2q.208-.89.384-1.785c.009-.044.019-.087.028-.132s.015-.087.024-.13q.065-.343.126-.689c.024-.131.048-.261.071-.392q.072-.424.136-.849c.012-.079.026-.157.037-.236q.081-.546.151-1.1c.012-.094.022-.188.034-.283.034-.272.066-.544.095-.818.015-.138.028-.276.042-.414.023-.232.046-.464.066-.7.012-.151.024-.3.036-.455.017-.222.034-.444.049-.667q.016-.236.029-.472c.013-.221.025-.441.035-.663.008-.159.014-.318.02-.478.009-.223.017-.447.023-.672,0-.1.007-.194.01-.292,0-.051,0-.1,0-.156.009-.443.015-.886.015-1.335V105.712C422.847,47.329,328.188,0,211.423,0" transform="translate(0 0)" fill="#361614"/>
          <path id="Path_33" data-name="Path 33" d="M211.68,360.815l.844,0,.846,0,.6,0,1.129-.009.683-.007h.02l1.047-.012.735-.011,1.029-.017h.014l.764-.014.967-.02h.039l.791-.018,1.022-.025.774-.021,1-.028.057,0,.757-.022.285-.009.588-.02.559-.019.579-.019.827-.031h.032l.043,0,1.082-.042.849-.034,1.133-.05.835-.037,1.136-.055.819-.04,1.134-.06.8-.042.12-.007,1.046-.059.737-.043.617-.038.658-.041.309-.019.289-.019q.928-.061,1.838-.124v-.268l.118.419c.331-.023.653-.048.981-.072.656-.048,1.313-.095,1.963-.144l.595-.046.3-.023,1.017-.08,1.018-.08.032,0c.156-.012.314-.024.468-.037l.472-.041c.37-.03.736-.063,1.1-.095s.738-.062,1.1-.095l.411-.036.346-.03q1.315-.117,2.61-.241l.266-.025.526-.052c.366-.035.727-.073,1.092-.109l1.229-.123.8-.084.093-.01q1.018-.106,2.025-.217c.276-.03.552-.06.827-.092q1.38-.154,2.744-.316l.131-.016c.78-.094,1.555-.191,2.327-.289l.256-.032.823-.106q.871-.113,1.737-.23l.2-.027.28-.039.561-.076,1.127-.159c.376-.053.753-.105,1.127-.159l.061-.009.278-.039.029,0,.022,0q2.272-.332,4.514-.69l.031,0q2.259-.362,4.5-.753l.126-.022q2.176-.382,4.339-.791l.252-.049q2.1-.4,4.2-.83l.151-.031.192-.04q2.058-.423,4.12-.874l.281-.063.125-.027q2.031-.448,4.073-.924l.089-.021.378-.089c1.085-.255,2.176-.521,3.268-.788.263-.065.524-.125.788-.19l.5-.126q2.024-.5,4.074-1.038l.244-.063.483-.128.558-.148c.444-.117.886-.233,1.332-.353l.509-.137.294-.079.852-.233c.6-.164,1.206-.327,1.814-.495v-.009c4.085-1.131,7.639-2.179,11.116-3.286,1.739-.553,3.458-1.122,5.215-1.724.879-.3,1.767-.61,2.671-.93.782-.276,1.584-.565,2.394-.858l0,0c.069-.026.136-.051.206-.076l.168-.061v0q1.415-.516,2.806-1.039l.512-.192q1.5-.566,2.972-1.14l.57-.224q1.485-.582,2.942-1.172l.348-.142q1.419-.578,2.81-1.162l.308-.129q1.02-.431,2.026-.864c.255-.111.507-.223.762-.333l.605-.265q1.378-.606,2.728-1.218l.235-.108.162-.074q1.245-.569,2.466-1.145l.453-.213c.582-.277,1.154-.556,1.728-.834.286-.139.578-.277.864-.417l.548-.27c.293-.145.577-.291.867-.436.578-.288,1.158-.576,1.725-.867l.028-.015q1.27-.651,2.509-1.312l.519-.277q1.213-.65,2.4-1.308c.141-.078.28-.156.422-.235.53-.3,1.054-.6,1.576-.9.2-.114.4-.226.6-.341.109-.063.219-.125.327-.188q1.16-.672,2.289-1.355l.128-.077.367-.223c.758-.46,1.51-.923,2.249-1.389l.182-.117.568-.362c.242-.155.485-.308.725-.463.154-.1.3-.2.456-.3l.228-.149.319-.21.32-.21c.336-.223.664-.447,1-.671s.668-.445,1-.671c.028-.019.057-.039.086-.057l.085-.058q1.061-.73,2.091-1.471l.4-.287.178-.128q.793-.574,1.568-1.154c.179-.133.36-.267.536-.4q1-.752,1.967-1.514l.287-.229q.833-.659,1.645-1.326l.37-.3.185-.153c.175-.146.354-.29.528-.436q.619-.52,1.225-1.045l.026-.021.017-.014c.236-.2.463-.412.7-.617.364-.322.732-.642,1.091-.965l.376-.339q.858-.781,1.691-1.572l.186-.178.091-.087c.126-.121.249-.244.376-.366.381-.368.762-.736,1.135-1.108.086-.085.173-.17.258-.255q.8-.8,1.582-1.622l.339-.356.225-.238c.076-.08.151-.158.225-.238q.551-.59,1.09-1.186c.038-.042.075-.085.114-.127q.733-.813,1.441-1.637l.172-.2.075-.087c.218-.255.428-.513.643-.769.256-.307.517-.612.769-.921l.1-.123.181-.223q.7-.867,1.382-1.745l.041-.054.081-.107q.647-.843,1.273-1.7l.129-.176c.027-.036.055-.073.081-.111l.11-.149.023-.032c.036-.049.07-.1.106-.15.242-.339.481-.681.719-1.021.153-.218.309-.435.461-.654q.681-.993,1.337-2v-.581q.431-.664.841-1.322.111-.178.221-.356.343-.555.675-1.108c.044-.075.09-.15.134-.224q.385-.647.749-1.289c.062-.108.122-.216.182-.324q.293-.521.574-1.039c.037-.069.077-.138.113-.206l.071-.133c.093-.175.184-.348.275-.522s.172-.328.256-.492.178-.349.265-.523.163-.324.243-.487.17-.349.254-.524.156-.324.232-.485.162-.348.241-.522.149-.322.222-.483.155-.351.232-.526c.07-.159.141-.319.209-.478.075-.176.147-.351.22-.526.066-.159.133-.319.2-.478.071-.175.139-.349.208-.524.063-.159.126-.319.187-.478.067-.176.133-.352.2-.527.049-.135.1-.27.151-.4.005-.015.01-.031.016-.046q.326-.9.617-1.8c.018-.056.036-.11.054-.166q.286-.894.536-1.792c.017-.061.035-.122.052-.184q.247-.89.459-1.784c.016-.067.033-.134.049-.2q.208-.888.384-1.785c.009-.043.019-.087.028-.132s.016-.087.024-.129c.044-.23.086-.46.126-.69.023-.13.048-.261.07-.392.048-.282.093-.566.136-.849.012-.079.026-.157.038-.236q.081-.546.151-1.1c.011-.095.022-.189.034-.283.033-.272.065-.545.095-.818.015-.137.027-.275.041-.413.023-.232.046-.464.066-.7.013-.151.025-.3.036-.454q.027-.333.049-.668c.011-.156.019-.315.029-.472.012-.22.025-.441.034-.662.008-.159.015-.319.021-.478q.013-.335.022-.673c0-.1.008-.194.01-.292,0-.051,0-.1,0-.155.01-.443.016-.887.016-1.335V105.712C422.848,47.329,328.188,0,211.423,0S0,47.329,0,105.712V254.8c0,.489.008.977.021,1.465,0,.159.012.318.019.477.011.329.025.657.042.985.01.188.023.376.035.564.019.3.041.6.065.9.016.2.034.393.052.59q.041.436.088.871c.022.2.044.4.068.593q.053.439.113.876c.027.192.052.384.08.575.045.307.095.613.146.919.028.173.056.347.086.521.064.366.133.732.205,1.1.022.111.042.224.064.336q.145.713.308,1.425c.028.124.06.248.089.371.083.351.168.7.257,1.049.045.176.094.35.141.525.08.3.16.6.245.894.054.189.11.377.165.567q.126.426.258.85c.061.194.122.385.184.578q.137.422.28.841c.065.19.129.379.2.569q.152.434.314.865c.065.178.13.355.2.533.121.319.247.637.374.955.057.144.113.289.171.432.188.462.381.922.582,1.381.018.042.038.083.056.125q.274.626.563,1.248c.072.156.147.311.221.466.142.3.286.6.434.9.088.178.178.355.268.533.14.278.28.555.424.832.1.186.194.37.293.555q.217.406.439.811c.1.185.2.369.306.553q.231.408.467.816c.1.178.205.356.31.534.171.288.345.575.52.863.1.158.191.317.289.475.221.357.447.713.675,1.068.056.087.11.174.165.261q.43.662.876,1.32c.084.124.171.247.256.371q.323.472.654.941c.117.164.235.328.354.491q.293.41.593.817c.129.175.261.35.392.525q.293.391.592.78.2.265.41.529.3.39.613.777c.138.172.276.346.415.517.217.267.437.533.657.8.133.161.266.323.4.483.251.3.506.595.763.891.109.126.216.254.326.379q.55.631,1.117,1.259l.185.2q.479.526.968,1.05c.136.145.275.289.413.435q.384.4.773.81c.157.163.317.323.476.486.247.251.494.5.745.752.168.168.336.335.506.5q.373.367.751.733c.172.167.345.333.519.5q.388.37.783.739c.17.159.339.318.511.476.284.263.573.526.862.788.153.139.3.278.459.416q.565.506,1.141,1.009l.208.183q.681.594,1.379,1.181c.14.118.282.235.422.353.328.274.656.548.989.821.18.148.363.294.544.442.3.241.6.483.9.722q.3.236.595.47.439.346.884.69.3.236.613.471.451.346.908.689c.2.152.4.3.607.455q.48.358.967.712c.192.141.383.281.575.421q.556.4,1.12.8c.149.105.3.212.446.317q.788.555,1.59,1.1c.109.075.22.148.33.224q.642.437,1.292.872c.2.13.392.259.589.388q.529.35,1.062.7c.221.144.444.286.666.429q.508.326,1.021.651c.23.146.462.292.694.437q.51.318,1.024.636l.705.432q.528.322,1.062.642c.227.136.454.273.683.408.386.23.776.458,1.166.685.2.117.4.236.6.353q.811.469,1.632.933c.053.029.105.06.158.09q.9.508,1.818,1.01c.193.107.389.211.583.317q.627.342,1.261.682c.239.128.48.255.72.383q.577.306,1.158.61l.765.4q.57.294,1.145.587.39.2.782.4.579.292,1.164.581c.259.128.518.257.778.384q.615.3,1.235.6l.723.348q.733.35,1.473.7l.5.237q.994.464,2,.921c.159.072.321.143.481.216q.77.347,1.546.692c.247.11.5.218.746.327q.651.286,1.307.569c.276.119.553.237.83.355q.624.266,1.254.531l.858.359q.628.261,1.26.52l.5.208.311.124q1.046.424,2.1.841l.3.118q1.2.472,2.414.934c.227.087.456.173.685.26q.912.345,1.834.687l.742.274q1.135.415,2.279.825l.21.076q1.246.443,2.508.877l.723.247q.945.324,1.9.642l.762.254q1.225.406,2.462.8l.111.036q1.291.415,2.6.818l.279.087c.09.028.183.055.273.082q2.021.623,4.069,1.224l.512.149q2.039.593,4.106,1.165l.532.147q2.074.569,4.174,1.115l.521.135q2.124.549,4.276,1.074l.283.071.213.05q1.88.456,3.781.894l.618.141q1.889.432,3.8.845l.628.135q1.926.414,3.871.809l.557.112q2,.4,4.014.785l.121.023c.1.02.2.036.3.055q1.812.342,3.641.666l.362.065q1.868.33,3.754.642l.686.113q1.848.3,3.711.59l.666.1q1.925.293,3.864.569l.061.009.2.027q1.782.251,3.576.486l.645.085q1.826.237,3.664.458l.744.088q1.885.223,3.783.43l.222.024q1.84.2,3.691.38l.424.044.251.023q1.85.18,3.711.343l.751.065q1.924.164,3.857.315l.049,0q1.918.146,3.849.274l.751.049q1.887.123,3.783.229l.273.017.436.022q1.974.106,3.958.2l.1,0q2.011.09,4.033.158l.75.027q1.956.065,3.92.111l.747.017q2.042.045,4.091.073h.033q2.7.034,5.412.034" transform="translate(0 0)" fill="#3e1b16"/>
          <rect id="Rectangle_37" data-name="Rectangle 37" width="61.409" height="134.978" transform="translate(163.191 218.691)" fill="#3e1b16"/>
          <path id="Path_34" data-name="Path 34" d="M440.279,152.269V301.361L239.2,268.694V119.6Z" transform="translate(-27.78 -13.89)" fill="#2d1010"/>
          <path id="Path_35" data-name="Path 35" d="M477.031,120.937c0,.149-.007.3-.011.446-.006.225-.013.449-.022.673-.006.16-.013.319-.021.478q-.016.331-.035.662c-.009.158-.019.316-.028.473q-.023.334-.05.667c-.011.152-.023.3-.036.454-.02.233-.043.466-.066.7-.013.138-.027.276-.041.413-.029.274-.062.547-.1.819-.011.094-.021.188-.033.282-.047.366-.1.732-.152,1.1-.011.079-.025.156-.037.235-.043.284-.088.568-.136.851-.022.131-.047.26-.07.391-.041.231-.082.461-.126.691-.017.087-.035.173-.052.26q-.176.9-.384,1.785c-.016.066-.033.133-.049.2q-.214.895-.459,1.785c-.017.061-.035.122-.052.183q-.252.9-.536,1.792c-.018.055-.036.11-.055.165q-.29.9-.616,1.8c-.055.15-.112.3-.168.451-.065.175-.13.351-.2.525s-.125.321-.188.481-.137.348-.208.522-.132.319-.2.478c-.073.175-.145.351-.22.526-.069.16-.14.32-.209.48-.077.175-.152.349-.231.523s-.148.324-.223.486-.158.346-.24.52-.156.325-.233.488-.167.347-.253.521-.162.325-.244.488-.174.348-.264.522-.171.33-.257.494-.181.346-.274.52c-.061.114-.123.227-.185.341q-.28.517-.573,1.037c-.06.109-.12.217-.182.325q-.365.642-.748,1.288l-.136.226q-.33.552-.675,1.107-.109.178-.22.355-.412.659-.841,1.322V301.361q.431-.664.841-1.322c.074-.118.148-.238.221-.356q.343-.555.675-1.108c.044-.075.09-.15.134-.224q.384-.647.749-1.289c.062-.108.121-.216.182-.323q.293-.521.573-1.039c.037-.069.078-.138.114-.206l.071-.133c.093-.175.184-.348.275-.522s.172-.329.256-.492.177-.349.265-.523.164-.325.243-.487.17-.349.254-.524.156-.324.232-.485.162-.348.241-.522.149-.322.222-.483.155-.351.232-.526c.07-.159.141-.319.209-.478.075-.176.147-.351.22-.526.066-.159.133-.319.2-.478.072-.175.14-.349.209-.524.063-.16.126-.319.187-.478.067-.176.133-.352.2-.527.05-.135.1-.27.15-.4.006-.016.011-.031.016-.047q.327-.9.617-1.8c.019-.056.037-.11.055-.166q.285-.895.536-1.792c.017-.061.035-.122.052-.184q.245-.89.459-1.785c.016-.067.033-.134.049-.2q.208-.888.384-1.785c.009-.044.019-.087.028-.132s.016-.087.024-.129c.044-.23.085-.46.126-.69.023-.131.048-.261.07-.392.048-.282.093-.566.136-.849.012-.079.026-.157.037-.236q.082-.546.152-1.1c.011-.094.021-.188.033-.283.034-.271.066-.544.1-.818.014-.137.027-.276.041-.414.023-.232.046-.463.066-.7.013-.151.025-.3.036-.454q.027-.333.05-.668c.01-.156.019-.315.028-.472q.02-.33.035-.662c.008-.159.015-.319.021-.478q.013-.335.022-.673c0-.1.007-.194.01-.292,0-.051,0-.1,0-.155.009-.443.016-.887.016-1.336V119.6c0,.447-.007.892-.016,1.335" transform="translate(-54.2 -13.89)" fill="#361614"/>
          <path id="Path_36" data-name="Path 36" d="M205.978,225.28q-2.051-.026-4.091-.073l-.748-.017q-1.965-.046-3.92-.111l-.749-.027q-2.022-.07-4.034-.158l-.1,0q-1.982-.089-3.953-.2l-.717-.039q-1.9-.106-3.78-.229l-.751-.05q-1.929-.129-3.849-.273l-.049,0q-1.934-.148-3.857-.315l-.751-.065q-1.861-.163-3.711-.342l-.675-.067q-1.851-.183-3.69-.38l-.223-.024q-1.9-.206-3.783-.43l-.744-.088q-1.838-.221-3.664-.458l-.645-.085q-1.794-.236-3.576-.486l-.26-.036q-1.94-.274-3.864-.569l-.666-.1q-1.863-.286-3.71-.59l-.687-.113q-1.884-.314-3.754-.642l-.362-.065q-1.828-.325-3.641-.666l-.42-.078q-2.018-.383-4.015-.786l-.557-.111q-1.945-.4-3.871-.809l-.628-.135q-1.909-.414-3.8-.845l-.618-.141q-1.9-.439-3.78-.894l-.5-.121q-2.152-.525-4.276-1.074l-.521-.135q-2.1-.546-4.175-1.116l-.529-.146q-2.067-.571-4.1-1.165l-.518-.15q-2.048-.6-4.066-1.223l-.553-.17q-1.3-.406-2.6-.818l-.11-.036q-1.238-.4-2.465-.8l-.757-.253q-.955-.318-1.9-.643l-.719-.246q-1.262-.435-2.512-.879l-.2-.072q-1.149-.41-2.288-.828l-.742-.275q-.921-.341-1.833-.686c-.23-.087-.459-.172-.686-.26q-1.213-.463-2.413-.934l-.3-.118q-1.055-.418-2.1-.841l-.814-.331q-.632-.259-1.26-.52l-.858-.359q-.628-.264-1.254-.531l-.83-.355q-.656-.282-1.306-.569c-.249-.11-.5-.217-.747-.327q-.777-.343-1.546-.692l-.481-.216q-1.006-.457-2-.921c-.169-.079-.336-.158-.5-.238q-.74-.346-1.473-.7l-.723-.348q-.62-.3-1.236-.6c-.26-.127-.519-.256-.778-.384q-.583-.289-1.164-.581-.392-.2-.781-.4c-.384-.194-.765-.391-1.146-.587l-.764-.4q-.583-.3-1.159-.61c-.24-.128-.482-.255-.72-.383-.423-.226-.842-.454-1.261-.682-.194-.106-.39-.211-.582-.317q-.916-.5-1.819-1.01l-.155-.089q-.825-.465-1.636-.935c-.2-.116-.4-.232-.6-.349-.392-.229-.783-.457-1.171-.688-.229-.135-.456-.272-.682-.408q-.534-.321-1.063-.642c-.236-.143-.47-.288-.7-.432q-.516-.317-1.024-.636l-.695-.437q-.513-.325-1.02-.651c-.223-.142-.445-.285-.665-.428-.358-.232-.711-.465-1.064-.7-.2-.129-.393-.258-.589-.388q-.655-.438-1.3-.879c-.106-.072-.214-.144-.319-.217q-.8-.55-1.592-1.1c-.149-.106-.3-.213-.446-.318-.375-.266-.75-.533-1.12-.8-.193-.14-.383-.28-.575-.421-.323-.236-.647-.473-.966-.712q-.3-.227-.607-.455-.457-.343-.909-.689-.308-.235-.612-.471-.445-.345-.886-.691c-.2-.156-.4-.312-.592-.468-.3-.24-.6-.483-.9-.725l-.543-.44q-.5-.411-.993-.824c-.138-.117-.28-.232-.418-.349q-.7-.589-1.379-1.182c-.071-.061-.139-.122-.208-.183q-.577-.5-1.141-1.009c-.155-.139-.307-.278-.46-.416q-.434-.392-.862-.788c-.171-.158-.339-.316-.509-.476q-.4-.37-.785-.741l-.516-.5c-.255-.245-.5-.491-.755-.736l-.5-.5-.748-.756c-.158-.162-.316-.322-.472-.483-.263-.27-.521-.543-.78-.814-.135-.144-.273-.286-.408-.43q-.489-.525-.97-1.053l-.183-.2q-.567-.627-1.118-1.259c-.11-.126-.218-.254-.328-.38q-.383-.444-.76-.889c-.135-.161-.269-.323-.4-.484q-.331-.4-.656-.8c-.141-.172-.278-.345-.416-.518q-.309-.387-.613-.776c-.138-.176-.274-.353-.41-.529-.2-.26-.4-.521-.592-.781-.131-.174-.261-.349-.391-.523q-.3-.408-.594-.818c-.118-.164-.237-.326-.353-.491-.223-.314-.44-.628-.656-.943-.085-.124-.171-.246-.255-.369q-.447-.658-.877-1.32c-.055-.085-.108-.171-.163-.255q-.345-.536-.677-1.072c-.1-.157-.194-.316-.29-.474-.175-.288-.348-.575-.52-.864q-.156-.265-.308-.532-.237-.408-.468-.818-.154-.276-.3-.552-.223-.406-.44-.812-.147-.276-.292-.553c-.145-.278-.285-.555-.426-.833-.089-.178-.179-.354-.265-.532q-.223-.452-.437-.906c-.073-.155-.148-.308-.22-.463q-.289-.623-.562-1.249c-.019-.042-.039-.083-.057-.125q-.3-.689-.582-1.382c-.057-.143-.114-.288-.17-.431-.128-.319-.255-.637-.376-.957-.066-.177-.131-.354-.2-.532-.105-.288-.211-.577-.313-.865-.067-.19-.132-.379-.2-.569q-.143-.419-.279-.841-.093-.289-.184-.578c-.089-.283-.173-.567-.258-.85-.057-.189-.111-.377-.166-.567-.084-.3-.165-.6-.245-.894-.047-.175-.095-.35-.141-.525-.089-.349-.173-.7-.257-1.05-.028-.124-.061-.247-.089-.37q-.163-.712-.307-1.425c-.023-.112-.043-.225-.065-.336q-.107-.548-.205-1.1c-.03-.174-.057-.347-.086-.521-.049-.307-.1-.613-.145-.919-.028-.192-.055-.384-.081-.575q-.06-.438-.113-.876c-.024-.2-.046-.4-.066-.593-.033-.29-.061-.58-.089-.871-.018-.2-.036-.393-.052-.591-.024-.3-.045-.6-.065-.9-.012-.187-.025-.376-.035-.563-.018-.328-.031-.656-.042-.985-.006-.159-.014-.318-.019-.477Q0,120.336,0,119.6V268.694q0,.733.02,1.465c0,.16.012.319.019.478.011.328.025.656.042.984.011.188.023.376.035.564q.029.449.065.9c.016.2.034.394.052.591.028.29.057.581.089.871.02.2.042.4.066.592q.053.439.113.877c.027.192.053.384.081.575.044.307.1.613.145.919.028.174.056.348.086.521q.1.55.205,1.1c.022.112.042.224.065.336q.143.715.307,1.425c.028.125.061.248.089.372.084.35.168.7.257,1.049.046.175.094.35.141.524q.119.448.245.894c.055.188.11.377.166.566.085.285.169.568.258.851q.091.289.184.578.135.42.279.841c.065.189.129.379.2.568.1.289.208.577.313.865.066.178.131.355.2.533.121.319.247.638.374.956l.171.432q.282.692.582,1.381c.019.042.038.084.057.126q.273.626.562,1.248c.072.156.148.31.221.466q.215.452.434.9c.088.179.179.356.269.534.139.278.279.555.424.832q.145.277.293.554.216.406.439.811c.1.184.2.369.307.552.152.272.308.544.465.817.1.178.206.356.31.533.171.289.345.575.52.863.1.158.191.317.29.476q.331.536.674,1.068l.165.26q.43.662.877,1.32c.084.125.171.248.257.372.215.314.432.628.653.941.116.164.235.327.353.491.2.272.392.545.593.817.129.175.261.349.392.524.2.261.392.521.592.781.136.177.272.353.41.529q.3.389.615.776c.137.173.274.346.414.518.217.266.438.532.657.8.135.161.267.322.4.483.252.3.507.594.763.891.109.126.216.253.326.379q.55.631,1.117,1.258l.185.2q.479.526.968,1.05c.136.146.277.29.414.435q.383.406.773.81c.158.163.316.324.476.486q.369.378.744.753l.506.5q.374.367.752.733c.171.167.345.333.518.5q.388.37.783.738c.17.159.339.319.511.477q.427.4.862.788c.153.138.3.277.46.416q.563.506,1.141,1.008c.069.061.137.123.208.184q.683.593,1.378,1.181c.14.118.282.234.422.353q.492.411.989.82c.18.148.363.3.544.443.3.241.6.482.9.721l.6.471c.293.231.587.461.884.69q.3.236.612.471.451.345.909.689.3.228.607.455c.319.238.643.475.966.712.193.14.383.281.575.421.37.268.745.534,1.12.8.149.106.3.213.446.318q.789.556,1.59,1.1l.33.223q.643.439,1.292.872l.589.389c.354.233.706.466,1.064.7.219.143.442.286.665.429q.506.326,1.02.651l.695.436q.509.32,1.024.636l.7.432q.528.321,1.063.641.339.205.682.409c.386.229.777.457,1.166.685.2.118.4.235.605.353q.809.468,1.632.932c.051.031.1.061.156.091q.9.509,1.819,1.011c.193.106.388.21.582.316.419.229.838.456,1.261.682.239.128.48.255.72.383q.577.306,1.159.61l.764.4c.381.2.762.392,1.146.586q.388.2.781.4.582.292,1.164.581l.778.384q.615.3,1.236.6c.241.117.481.233.723.347q.732.353,1.473.7l.5.238q.994.463,2,.92l.481.216q.77.349,1.546.693l.747.326q.651.286,1.306.57c.277.118.553.237.83.354q.624.269,1.254.533l.858.358q.628.261,1.26.519c.168.07.335.141.5.208.1.043.208.084.309.125q1.047.423,2.1.841c.1.04.2.08.3.118.8.316,1.6.625,2.413.935l.686.259q.912.346,1.833.687l.742.274q1.134.416,2.278.825l.21.076q1.248.443,2.508.878c.24.083.482.164.724.247q.943.321,1.9.641l.762.255q1.225.4,2.462.8l.111.036q1.291.415,2.6.818l.279.088v0c.09.027.183.053.273.082q2.021.623,4.069,1.222c.171.051.341.1.512.15q2.039.594,4.106,1.166l.533.145q2.072.572,4.174,1.116l.521.135q2.124.549,4.276,1.075l.283.071.214.05q1.879.456,3.78.892l.618.143q1.889.431,3.8.845l.628.134q1.926.414,3.871.81l.557.111q2,.4,4.015.785l.121.024.3.055q1.812.341,3.641.666l.362.065q1.868.33,3.754.642l.687.113q1.848.3,3.71.59l.666.1q1.925.293,3.864.569c.02,0,.041.005.062.01l.2.027q1.782.252,3.576.486l.645.086q1.826.236,3.664.457l.744.088q1.885.224,3.783.431l.223.024q1.839.2,3.69.38c.142.014.283.03.424.043v0l.251.023q1.85.18,3.711.343l.751.065q1.924.166,3.857.315c.016,0,.033,0,.049,0q1.918.144,3.849.273l.751.05q1.887.122,3.784.229l.272.016c.145.009.291.014.436.022q1.974.107,3.958.2l.1.005q2.011.089,4.034.158l.749.026q1.956.065,3.92.112l.748.017q2.04.045,4.091.073h.034q2.7.033,5.412.034V225.314q-2.715,0-5.412-.034h-.034" transform="translate(0 -13.89)" fill="#361614"/>
          <path id="Path_37" data-name="Path 37" d="M211.423,0C328.188,0,422.847,47.329,422.847,105.712c0,11.676-3.132,21.562-10.347,32.667L211.423,105.712V211.423C94.659,211.423,0,164.094,0,105.712S94.659,0,211.423,0" transform="translate(0 0)" fill="#441e1c"/>
          <path id="Path_38" data-name="Path 38" d="M440.279,196.93,239.2,164.262v110.2l124.272,85.524q1.608-.583,3.181-1.176l.511-.192q1.5-.566,2.972-1.14l.57-.224q1.485-.583,2.942-1.172l.348-.142q1.42-.578,2.81-1.162l.309-.129q1.02-.431,2.025-.864c.256-.111.507-.223.762-.334l.605-.264q1.378-.606,2.729-1.218l.4-.182q1.246-.569,2.466-1.145l.452-.212q1.311-.622,2.592-1.252l.549-.271q1.309-.647,2.592-1.3l.028-.014c.847-.434,1.68-.872,2.508-1.313l.519-.277q1.213-.65,2.4-1.307l.421-.236q1.1-.614,2.176-1.236l.328-.188q1.159-.674,2.289-1.355l.494-.3q1.138-.691,2.249-1.389l.182-.116q.651-.412,1.294-.826c.23-.149.455-.3.683-.449s.428-.28.64-.421q1.006-.667,1.991-1.341c.057-.039.115-.077.171-.116.708-.487,1.4-.978,2.092-1.472.193-.138.383-.277.574-.415q.793-.574,1.569-1.154c.179-.133.359-.267.536-.4q1-.752,1.967-1.513l.286-.229q.833-.659,1.646-1.326l.554-.459c.176-.145.354-.289.528-.436q.619-.52,1.226-1.044c.013-.012.027-.024.042-.035q.908-.786,1.787-1.583c.126-.113.251-.225.376-.339q.858-.78,1.692-1.571l.277-.265q.765-.733,1.51-1.473c.086-.086.173-.171.259-.255q.8-.806,1.581-1.622c.114-.118.226-.238.339-.356.15-.159.3-.316.452-.476q.55-.59,1.089-1.185c.039-.042.076-.086.114-.128q.733-.813,1.442-1.636c.082-.1.165-.19.247-.286q.719-.838,1.412-1.689c.094-.116.187-.231.28-.346.468-.578.93-1.159,1.382-1.745.042-.053.081-.107.122-.16q.648-.843,1.274-1.7l.21-.285c.043-.061.089-.121.133-.181.281-.388.552-.781.826-1.172.153-.218.31-.434.461-.654q.681-.992,1.336-2Z" transform="translate(-27.78 -19.076)" fill="#ee6564"/>
          <path id="Path_39" data-name="Path 39" d="M456.608,311.421v-110.2q-.654,1.008-1.337,2c-.15.218-.307.433-.459.651-.317.453-.635.907-.96,1.355-.07.1-.141.191-.211.286q-.626.854-1.273,1.7l-.122.16q-.678.879-1.382,1.745c-.094.115-.186.231-.281.346q-.695.851-1.412,1.691l-.246.284q-.711.825-1.443,1.638l-.114.127q-.757.838-1.541,1.662c-.112.119-.225.238-.339.356q-.78.817-1.582,1.623l-.256.254q-.746.742-1.513,1.476c-.092.088-.182.176-.275.263q-.833.792-1.693,1.572l-.373.338c-.589.531-1.183,1.06-1.79,1.584l-.038.033c-.576.5-1.164.991-1.756,1.482q-.276.229-.555.458-.813.667-1.645,1.326c-.1.076-.19.153-.287.229q-.968.762-1.965,1.513c-.178.134-.359.269-.539.4q-.776.581-1.567,1.153l-.574.415q-1.034.74-2.092,1.472c-.056.038-.114.076-.17.115q-.985.676-1.994,1.343l-.636.418q-.98.642-1.979,1.275l-.182.117q-1.11.7-2.249,1.389l-.5.3q-1.131.681-2.287,1.354l-.332.191q-1.074.62-2.172,1.233l-.422.237q-1.185.658-2.4,1.306l-.523.278c-.827.44-1.66.878-2.506,1.311l-.028.015q-1.279.656-2.59,1.3c-.185.09-.369.182-.553.273q-1.282.628-2.589,1.25l-.454.214q-1.22.575-2.463,1.144l-.4.182q-1.348.614-2.728,1.218l-.605.265q-1.38.6-2.788,1.2l-.309.129q-1.391.585-2.81,1.162l-.348.142q-1.456.59-2.942,1.173l-.57.223q-1.472.574-2.972,1.141l-.511.192q-1.576.591-3.181,1.176v110.2q1.608-.585,3.181-1.177l.511-.192q1.5-.566,2.972-1.14l.57-.224q1.485-.582,2.942-1.172l.348-.142q1.419-.578,2.81-1.162l.309-.129q1.019-.431,2.026-.864c.255-.11.507-.223.762-.333l.605-.265q1.377-.606,2.729-1.218l.4-.182q1.245-.569,2.466-1.145l.453-.213q1.31-.622,2.591-1.252l.549-.27q1.309-.648,2.592-1.3l.028-.015c.847-.434,1.68-.872,2.508-1.312l.519-.277q1.213-.65,2.4-1.308l.421-.235q1.1-.615,2.176-1.237c.109-.063.219-.125.328-.188q1.159-.672,2.289-1.355l.494-.3q1.137-.689,2.249-1.389l.182-.116q.651-.411,1.294-.825c.23-.149.454-.3.683-.449l.639-.42q1.008-.667,1.992-1.342l.171-.116q1.061-.73,2.092-1.472c.193-.138.383-.277.574-.415q.793-.574,1.569-1.154l.537-.4q1-.753,1.966-1.514c.1-.076.191-.153.287-.229q.833-.659,1.645-1.326.28-.228.555-.458c.176-.146.354-.29.528-.436q.619-.52,1.226-1.045l.042-.035q.908-.785,1.787-1.582l.376-.339q.858-.781,1.692-1.572c.093-.087.184-.177.276-.265q.766-.732,1.511-1.473c.086-.085.173-.17.258-.255q.8-.8,1.582-1.622l.339-.356c.15-.159.3-.316.452-.476q.55-.589,1.089-1.185l.114-.127q.733-.814,1.441-1.637c.083-.1.166-.19.247-.285q.719-.839,1.412-1.69c.095-.115.187-.231.281-.346q.7-.866,1.382-1.744l.122-.161q.648-.843,1.273-1.7l.211-.286c.043-.06.089-.12.133-.181.28-.387.552-.78.826-1.171.153-.218.31-.435.46-.654q.683-.993,1.337-2" transform="translate(-44.108 -23.369)" fill="#e05c60"/>
          <path id="Path_40" data-name="Path 40" d="M363.476,249.787v110.2L239.2,274.461v-110.2Z" transform="translate(-27.78 -19.077)" fill="#ca484c"/>
          <path id="Path_41" data-name="Path 41" d="M239.2,164.263l201.076,32.668c-14.433,22.21-39.018,39.129-76.8,52.856Z" transform="translate(-27.78 -19.077)" fill="#ee6564"/>
          <path id="Path_42" data-name="Path 42" d="M239.626,244.782v38.894l102.5,92.458c8.171-2.264,14.214-4.189,21.772-6.934V330.306Z" transform="translate(-27.829 -28.427)" fill="#faddcc"/>
        </g>
      </g>
      <g id="Group_23" data-name="Group 23" transform="translate(314.297 301.879)">
        <g id="Group_22" data-name="Group 22" clip-path="url(#clip-path-2)">
          <path id="Path_43" data-name="Path 43" d="M377.366,341.544v38.894c-7.559,2.745-13.6,4.67-21.772,6.934V348.478c8.171-2.264,14.213-4.189,21.772-6.934" transform="translate(-355.594 -341.544)" fill="#e8af94"/>
        </g>
      </g>
      <g id="Group_25" data-name="Group 25">
        <g id="Group_24" data-name="Group 24" clip-path="url(#clip-path)">
          <path id="Path_45" data-name="Path 45" d="M342.126,337.24v38.894l-102.5-92.458V244.782Z" transform="translate(-27.829 -28.428)" fill="#818487"/>
          <path id="Path_46" data-name="Path 46" d="M239.626,244.782,363.9,330.306c-7.558,2.745-13.6,4.67-21.772,6.934Z" transform="translate(-27.829 -28.427)" fill="#faddcc"/>
          <path id="Path_47" data-name="Path 47" d="M342.126,285.912l-102.5-92.458v84.27l29.426,104.682c.991-.069,1.97-.141,2.944-.215l.893-.069q1.024-.08,2.035-.162l.5-.039.473-.041q1.111-.093,2.209-.189l.758-.066q1.448-.13,2.876-.267l.525-.051q1.168-.114,2.321-.233l.894-.093q1.017-.107,2.024-.218l.828-.091q1.38-.155,2.744-.317l.13-.016q1.3-.156,2.584-.32l.822-.107q.974-.126,1.94-.256l.841-.115q1.132-.155,2.255-.318l.339-.048.052-.008q2.271-.33,4.514-.689l.031-.005q2.258-.362,4.5-.752l.126-.023q2.176-.381,4.34-.791l.251-.049q2.1-.4,4.2-.829l.344-.072q2.058-.423,4.119-.874c.136-.029.271-.06.407-.09q2.031-.447,4.073-.924l.468-.11q2.019-.475,4.055-.978l.5-.126q2.026-.505,4.075-1.039l.244-.062.483-.129q.943-.247,1.89-.5l.8-.216q1.326-.358,2.665-.728Z" transform="translate(-27.829 -22.467)" fill="#e57d7f"/>
          <path id="Path_48" data-name="Path 48" d="M343.328,383.058q1.326-.358,2.665-.728V298.06q-1.34.371-2.665.728l-.805.216q-.945.253-1.883.5l-.736.193q-2.046.534-4.067,1.037l-.511.127q-2.035.5-4.052.977l-.468.11q-2.04.476-4.068.924l-.413.091q-2.062.452-4.117.873l-.343.072q-2.1.43-4.2.829l-.252.049q-2.165.411-4.339.791l-.125.023q-2.239.391-4.5.752l-.031.005q-2.243.359-4.514.689l-.391.056q-1.123.163-2.254.318l-.842.115q-.965.13-1.939.257l-.823.106q-1.285.163-2.583.32l-.131.016q-1.363.163-2.744.317l-.828.091q-1.006.111-2.024.218l-.894.093q-1.147.118-2.307.231l-.543.054q-1.424.137-2.868.265l-.772.068q-1.092.1-2.2.188l-.974.08q-1.01.082-2.035.162l-.893.069c-.974.073-1.953.146-2.944.215v84.27c.991-.069,1.97-.141,2.944-.215l.893-.07q1.023-.078,2.035-.161c.166-.013.336-.026.5-.04l.472-.04q1.111-.093,2.21-.19l.757-.065q1.449-.13,2.876-.267l.526-.051q1.167-.114,2.32-.232l.894-.093q1.017-.107,2.024-.218l.828-.091q1.38-.155,2.744-.317l.131-.016q1.3-.156,2.583-.32l.823-.107q.973-.126,1.939-.256l.842-.115q1.131-.155,2.254-.318l.339-.048.051-.008q2.271-.331,4.514-.689l.031-.005q2.259-.362,4.5-.753l.125-.022q2.176-.38,4.339-.791l.252-.049q2.1-.4,4.2-.829l.343-.072q2.058-.423,4.12-.874l.406-.09q2.031-.447,4.073-.924l.468-.11q2.019-.475,4.056-.978l.5-.126q2.025-.505,4.074-1.038l.244-.063.483-.128q.941-.247,1.89-.5l.8-.216" transform="translate(-31.695 -34.615)" fill="#cd7072"/>
          <path id="Path_49" data-name="Path 49" d="M269.051,298.137v84.27L239.626,277.723V193.454Z" transform="translate(-27.829 -22.467)" fill="#b46365"/>
          <path id="Path_50" data-name="Path 50" d="M239.626,193.454l102.5,92.458c-24.511,6.792-45.324,10.275-73.074,12.225Z" transform="translate(-27.829 -22.467)" fill="#e57d7f"/>
          <path id="Path_51" data-name="Path 51" d="M239.493,229.951v157.57q.837,0,1.69,0l.6,0,1.129-.008.691-.008q.529-.005,1.06-.012l.735-.011,1.029-.017.778-.015,1.006-.02L249,387.4l1.022-.026.774-.02,1.054-.03.757-.023.285-.009.588-.019,1.138-.04.859-.031q.562-.021,1.125-.044l.849-.035,1.133-.049.835-.038,1.136-.054.819-.041,1.134-.059.8-.042,1.166-.067.737-.042,1.275-.08.6-.038q.928-.06,1.838-.124V334.635Z" transform="translate(-27.813 -26.705)" fill="#6c4623"/>
          <path id="Path_52" data-name="Path 52" d="M255.472,400.96l1.125-.043.849-.034,1.134-.049.834-.037,1.136-.055.819-.04,1.135-.06.8-.042,1.165-.066.737-.043c.428-.026.852-.052,1.275-.08l.6-.037q.928-.061,1.838-.124V348.39q-.907.064-1.834.124l-.628.039c-.415.026-.83.053-1.25.078l-.737.043c-.387.022-.774.045-1.165.066l-.8.043-1.123.058-.835.041-1.124.054-.836.037-1.134.05-.849.034-1.125.043-.859.032-1.138.039-.873.029-.757.022-1.055.031-.763.02-1.042.026-.769.017-1.026.021-.766.014-1.031.017-.735.011-1.061.012-.691.007-1.128.009-.6,0q-.852,0-1.69,0v51.858q.838,0,1.69,0l.6,0,1.128-.009.691-.007,1.061-.012.735-.011,1.029-.017.777-.014,1.007-.021.79-.018,1.023-.025.774-.021c.35-.009.7-.019,1.053-.03l.757-.023.285-.008.588-.02,1.138-.039.859-.032" transform="translate(-27.813 -40.46)" fill="#52341a"/>
          <path id="Path_53" data-name="Path 53" d="M239.493,229.951l29.426,104.684c-9.25.65-20.082,1.027-29.426,1.027Z" transform="translate(-27.813 -26.705)" fill="#6c4623"/>
        </g>
      </g>
    </g>
    <rect id="Rectangle_41" data-name="Rectangle 41" width="27" height="27" transform="translate(692 8761)" fill="#441e1c"/>
    <rect id="Rectangle_44" data-name="Rectangle 44" width="27" height="27" transform="translate(692 8857)" fill="#fff"/>
    <rect id="Rectangle_42" data-name="Rectangle 42" width="27" height="27" transform="translate(692 8809)" fill="#ee6564"/>
    <rect id="Rectangle_43" data-name="Rectangle 43" width="27" height="27" transform="translate(692 8905)" fill="#e57d7f"/>
    <rect id="Rectangle_45" data-name="Rectangle 45" width="27" height="27" transform="translate(692 8953)" fill="#6c4623"/>
  </g>
</svg>
