<svg xmlns="http://www.w3.org/2000/svg" width="37.334" height="30.334" viewBox="0 0 37.334 30.334">
  <g id="Group_49" data-name="Group 49" transform="translate(-1699.133 -62)">
    <g id="twitter_1_" data-name="twitter (1)" transform="translate(1699.133 62)">
      <g id="Group_8" data-name="Group 8" transform="translate(0)">
        <path id="Path_21" data-name="Path 21" d="M37.334,51.591a15.958,15.958,0,0,1-4.41,1.209,7.611,7.611,0,0,0,3.367-4.23,15.3,15.3,0,0,1-4.853,1.853A7.653,7.653,0,0,0,18.2,55.656a7.881,7.881,0,0,0,.177,1.745A21.664,21.664,0,0,1,2.6,49.4a7.656,7.656,0,0,0,2.352,10.23,7.559,7.559,0,0,1-3.458-.943v.084a7.689,7.689,0,0,0,6.132,7.521,7.639,7.639,0,0,1-2.007.252,6.767,6.767,0,0,1-1.449-.131,7.727,7.727,0,0,0,7.152,5.332A15.379,15.379,0,0,1,1.832,75,14.336,14.336,0,0,1,0,74.9a21.548,21.548,0,0,0,11.742,3.435c14.084,0,21.785-11.667,21.785-21.78,0-.338-.012-.665-.028-.989A15.269,15.269,0,0,0,37.334,51.591Z" transform="translate(0 -48)" fill="#f0484b"/>
      </g>
    </g>
  </g>
</svg>
