<svg xmlns="http://www.w3.org/2000/svg" xmlns:xlink="http://www.w3.org/1999/xlink" width="682" height="320.94" viewBox="0 0 682 320.94">
  <defs>
    <clipPath id="clip-path">
      <rect id="Rectangle_50" data-name="Rectangle 50" width="436.732" height="320.94" fill="none"/>
    </clipPath>
    <clipPath id="clip-path-2">
      <path id="Path_70" data-name="Path 70" d="M0,202.819C0,263.116,97.769,312,218.366,312V209.49C97.769,209.49,0,160.605,0,100.307Z" transform="translate(0 -100.307)" fill="none"/>
    </clipPath>
    <clipPath id="clip-path-4">
      <path id="Path_83" data-name="Path 83" d="M318.528,225.261v62.646c58.54-21.265,90.015-52.149,90.015-88.329V136.932c0,36.18-31.475,67.063-90.015,88.329" transform="translate(-318.528 -136.932)" fill="none"/>
    </clipPath>
    <clipPath id="clip-path-6">
      <path id="Path_91" data-name="Path 91" d="M200.613,265.15v34.171c48.242,0,89.323-6.674,128.35-20.851V244.3c-39.027,14.178-80.108,20.851-128.35,20.851" transform="translate(-200.613 -244.299)" fill="none"/>
    </clipPath>
  </defs>
  <g id="Group_53" data-name="Group 53" transform="translate(-1032 -8685.643)">
    <text id="_75_REWARD_15_SALE_10_AIRDROP" data-name="75% REWARD
15% SALE
10% AIRDROP" transform="translate(1559 8806.612)" fill="#5d2e28" font-size="24" font-family="Jost-Medium, Jost" font-weight="500"><tspan x="0" y="0">75% REWARD</tspan><tspan x="0" y="48">15% SALE</tspan><tspan x="0" y="96">10% AIRDROP</tspan></text>
    <rect id="Rectangle_46" data-name="Rectangle 46" width="27" height="27" transform="translate(1517 8785)" fill="#441e1c"/>
    <rect id="Rectangle_47" data-name="Rectangle 47" width="27" height="27" transform="translate(1517 8881)" fill="#6c4623"/>
    <rect id="Rectangle_48" data-name="Rectangle 48" width="27" height="27" transform="translate(1517 8833)" fill="#ee6564"/>
    <g id="Group_43" data-name="Group 43" transform="translate(1032 8685.643)">
      <g id="Group_30" data-name="Group 30">
        <g id="Group_29" data-name="Group 29" clip-path="url(#clip-path)">
          <path id="Path_59" data-name="Path 59" d="M436.732,109.183C436.732,48.884,338.964,0,218.367,0S0,48.884,0,109.183V211.695c0,1.01.033,2.017.087,3.021.019.329.051.656.075.984.049.675.1,1.35.174,2.021.042.386.1.77.146,1.155.081.613.164,1.226.265,1.836.066.4.139.8.214,1.2q.165.89.357,1.774.132.6.276,1.207c.143.592.3,1.183.46,1.773.107.389.211.778.325,1.166.184.62.385,1.238.59,1.855.116.349.225.7.347,1.049.261.74.543,1.476.834,2.212.086.22.163.442.253.661q.583,1.429,1.24,2.844c.114.245.241.489.358.734.333.7.673,1.392,1.033,2.084.18.345.372.687.558,1.031.319.59.641,1.178.98,1.762.214.371.439.741.661,1.11q.5.834,1.026,1.663c.238.376.483.75.729,1.123q.542.821,1.111,1.635c.255.367.509.733.773,1.1.4.558.817,1.112,1.237,1.666.259.341.513.684.778,1.023.475.608.968,1.213,1.464,1.816.229.279.448.558.681.835.738.875,1.493,1.745,2.275,2.608.075.083.155.163.23.246q1.066,1.171,2.186,2.328c.279.288.57.574.856.86.556.563,1.117,1.124,1.693,1.682.339.328.686.651,1.031.976.544.513,1.091,1.024,1.65,1.533.371.337.749.673,1.127,1.008q.834.738,1.69,1.471.586.5,1.182,1,.883.736,1.792,1.464c.393.317.784.634,1.183.947.653.515,1.321,1.025,1.992,1.534.367.278.727.557,1.1.834.845.629,1.708,1.251,2.578,1.87.209.149.411.3.624.45q1.629,1.148,3.318,2.272c.319.213.65.422.973.635.814.536,1.633,1.069,2.467,1.6.434.274.878.545,1.318.817.74.459,1.483.918,2.238,1.37.483.29.972.577,1.461.863q1.1.648,2.219,1.287.759.433,1.528.861,1.131.63,2.284,1.252c.513.278,1.025.555,1.543.829.8.426,1.615.845,2.432,1.264.5.255.991.512,1.492.764.925.465,1.864.923,2.805,1.38.4.2.8.394,1.2.588q2.029.97,4.108,1.916c.213.1.432.19.645.286q1.765.8,3.563,1.573c.5.214,1,.422,1.5.633.934.4,1.87.79,2.817,1.178.185.076.365.155.55.23.3.123.615.239.92.361q1.84.741,3.713,1.462c.5.192.994.383,1.495.573q2.415.914,4.879,1.8l.223.082q2.578.918,5.215,1.794c.512.171,1.028.339,1.542.507q1.972.648,3.974,1.275c.33.1.651.212.982.315.244.075.494.147.738.222.828.255,1.663.5,2.5.751.711.212,1.419.425,2.136.631.856.248,1.719.491,2.582.733.708.2,1.412.4,2.123.594.885.242,1.778.477,2.669.713.7.186,1.406.374,2.115.557.918.237,1.845.466,2.771.7.579.144,1.152.293,1.733.434.077.02.158.036.236.054q3.984.965,8.06,1.848c.374.082.748.164,1.123.245q3.984.854,8.051,1.628c.238.046.47.1.709.144.216.04.436.074.652.115q3.749.7,7.561,1.337c.438.073.876.143,1.315.213q3.976.648,8.011,1.228l.065.01c.079.012.16.021.239.032q3.755.529,7.567.986c.473.058.946.118,1.42.174q3.8.449,7.649.829c.21.021.417.048.628.069.3.028.6.049.9.078,2.637.251,5.286.488,7.956.691l.032,0c2.659.2,5.339.373,8.028.528.31.017.616.044.927.061.21.012.423.017.632.028q3.992.216,8.027.357c.507.018,1.016.033,1.523.049,2.8.089,5.614.16,8.446.2h.007q2.8.036,5.616.036v.062q4.288,0,8.5-.075c.924-.015,1.834-.045,2.753-.065,1.53-.034,3.068-.06,4.585-.109.418-.013.832-.033,1.25-.047.562-.02,1.119-.042,1.678-.064q3.527-.135,7.008-.32c.281-.015.565-.027.845-.042q3.767-.211,7.475-.488.864-.064,1.725-.131c.668-.052,1.341-.1,2.007-.152,1.5-.124,2.988-.263,4.476-.4.414-.039.833-.072,1.245-.112q3.7-.358,7.34-.784c.643-.074,1.281-.155,1.921-.233q2.8-.338,5.581-.716c.693-.095,1.388-.188,2.078-.286.441-.062.887-.118,1.327-.182q2.751-.4,5.475-.845c.367-.06.733-.123,1.1-.183q3.318-.547,6.6-1.148c.254-.047.508-.09.762-.138q3.445-.642,6.849-1.355.7-.144,1.39-.291,3.37-.713,6.707-1.49c.343-.079.683-.163,1.024-.245q3.2-.756,6.361-1.571c.257-.065.515-.128.772-.195.126-.034.255-.064.381-.1,1.332-.347,2.652-.724,3.976-1.089,1.059-.291,2.124-.569,3.178-.871,1.488-.426,2.964-.878,4.443-1.324.981-.295,1.968-.577,2.945-.881,1.632-.508,3.254-1.046,4.876-1.579.815-.268,1.636-.521,2.45-.8q3.648-1.229,7.271-2.545v-.064c1.65-.6,3.272-1.209,4.88-1.824.479-.184.952-.369,1.428-.554q1.755-.681,3.476-1.375c.477-.193.955-.384,1.427-.578q2.118-.867,4.184-1.752c.137-.059.278-.116.414-.175l.093-.038q2.294-.993,4.518-2.007c.446-.2.881-.41,1.323-.615,1.059-.489,2.113-.981,3.148-1.478.542-.261,1.077-.525,1.612-.787q1.385-.679,2.742-1.365.826-.418,1.639-.841,1.323-.686,2.617-1.38c.519-.279,1.04-.556,1.551-.837.914-.5,1.811-1.006,2.7-1.513.43-.245.868-.488,1.293-.734q1.86-1.078,3.657-2.175c.06-.037.123-.072.183-.109q1.729-1.06,3.4-2.138c.09-.058.175-.118.264-.176.632-.41,1.243-.826,1.861-1.241.642-.43,1.292-.858,1.921-1.292.606-.419,1.191-.845,1.784-1.268.613-.436,1.232-.872,1.831-1.313.58-.428,1.139-.861,1.706-1.293.582-.444,1.173-.886,1.743-1.335.554-.436,1.085-.878,1.625-1.318.47-.382.955-.761,1.414-1.146.093-.077.179-.156.27-.233.293-.248.576-.5.864-.747.685-.589,1.361-1.181,2.021-1.776.334-.3.663-.6.991-.907q.916-.846,1.8-1.7c.311-.3.624-.6.93-.9.643-.637,1.268-1.278,1.884-1.921.218-.227.443-.453.657-.681.055-.059.114-.115.169-.174.731-.784,1.439-1.573,2.132-2.365.183-.21.359-.422.54-.634q.862-1,1.682-2.019c.21-.26.421-.521.627-.783q.9-1.145,1.754-2.3c.087-.118.179-.234.264-.352.022-.032.047-.062.069-.094.612-.844,1.194-1.695,1.762-2.548.156-.235.307-.47.459-.705q.7-1.079,1.357-2.168c.123-.206.251-.409.372-.616.478-.811.943-1.625,1.382-2.445.047-.085.087-.172.133-.258.1-.193.2-.386.3-.579q.583-1.125,1.12-2.258c.114-.242.23-.483.341-.726.423-.921.829-1.846,1.2-2.778.042-.1.078-.208.121-.312.237-.6.472-1.2.691-1.8.087-.239.163-.481.247-.722.1-.272.188-.545.28-.819q.4-1.2.757-2.422c.046-.16.1-.318.143-.478q.4-1.434.729-2.879c.058-.251.109-.5.163-.755.085-.4.177-.79.256-1.188.066-.343.116-.688.177-1.032.054-.311.111-.624.162-.936q.207-1.3.36-2.6c.015-.134.036-.266.051-.4.11-1,.188-2.007.249-3.016.016-.287.024-.575.037-.862.021-.448.049-.9.06-1.345q.016-.713.016-1.431h0Z" fill="#3e1b16"/>
          <rect id="Rectangle_49" data-name="Rectangle 49" width="218.365" height="102.512" transform="translate(218.366 109.184)" fill="#2d1010"/>
          <path id="Path_60" data-name="Path 60" d="M218.366,209.488V312C97.769,312,0,263.116,0,202.818V100.307c0,60.3,97.769,109.181,218.366,109.181" transform="translate(0 8.877)" fill="#361614"/>
        </g>
      </g>
      <g id="Group_32" data-name="Group 32" transform="translate(0 109.184)">
        <g id="Group_31" data-name="Group 31" clip-path="url(#clip-path-2)">
          <path id="Path_61" data-name="Path 61" d="M201.069,200.615V303.127q-2.815,0-5.614-.035V200.579q2.8.038,5.614.036" transform="translate(17.297 -91.433)" fill="#361614"/>
          <path id="Path_62" data-name="Path 62" d="M196.97,200.631V303.143q-9.421-.118-18.634-.63V200q9.207.509,18.634.63" transform="translate(15.782 -91.485)" fill="#361614"/>
          <path id="Path_63" data-name="Path 63" d="M179.787,200.112V302.624q-9.037-.5-17.843-1.361V198.751q8.8.859,17.843,1.361" transform="translate(14.331 -91.595)" fill="#361614"/>
          <path id="Path_64" data-name="Path 64" d="M163.367,198.921V301.433q-8.885-.867-17.5-2.089V196.832q8.613,1.218,17.5,2.089" transform="translate(12.908 -91.765)" fill="#361614"/>
          <path id="Path_65" data-name="Path 65" d="M147.294,197.067V299.579q-8.964-1.269-17.6-2.9V194.163q8.634,1.633,17.6,2.9" transform="translate(11.477 -92.001)" fill="#361614"/>
          <path id="Path_66" data-name="Path 66" d="M131.168,194.483V296.995q-9.3-1.757-18.18-3.919V190.564q8.874,2.157,18.18,3.919" transform="translate(9.999 -92.32)" fill="#361614"/>
          <path id="Path_67" data-name="Path 67" d="M114.562,191V293.509q-9.976-2.425-19.364-5.333V185.664q9.378,2.9,19.364,5.333" transform="translate(8.424 -92.753)" fill="#361614"/>
          <path id="Path_68" data-name="Path 68" d="M97.063,186.328V288.84q-12.009-3.715-22.941-8.163V178.164q10.91,4.438,22.941,8.164" transform="translate(6.559 -93.417)" fill="#361614"/>
          <path id="Path_69" data-name="Path 69" d="M80.681,185.054V287.566C31.452,267.547,0,237.019,0,202.818V100.306c0,34.2,31.452,64.728,80.681,84.748" transform="translate(0 -100.307)" fill="#361614"/>
        </g>
      </g>
      <g id="Group_34" data-name="Group 34">
        <g id="Group_33" data-name="Group 33" clip-path="url(#clip-path)">
          <path id="Path_71" data-name="Path 71" d="M218.366,0c120.6,0,218.365,48.884,218.365,109.183H218.366V218.365C97.769,218.365,0,169.481,0,109.183S97.769,0,218.366,0" fill="#441e1c"/>
          <path id="Path_72" data-name="Path 72" d="M408.543,136.932v62.646c0,36.18-31.475,67.064-90.015,88.329V225.261c58.54-21.266,90.015-52.149,90.015-88.329" transform="translate(28.188 12.118)" fill="#e05c60"/>
        </g>
      </g>
      <g id="Group_36" data-name="Group 36" transform="translate(346.716 149.05)">
        <g id="Group_35" data-name="Group 35" clip-path="url(#clip-path-4)">
          <path id="Path_73" data-name="Path 73" d="M401.226,136.932v62.646q0,.718-.016,1.432V138.363q.016-.713.016-1.431" transform="translate(-311.211 -136.932)" fill="#e05c60"/>
          <path id="Path_74" data-name="Path 74" d="M401.3,138.247v62.646a60.631,60.631,0,0,1-1.1,10.195V148.441a60.607,60.607,0,0,0,1.1-10.194" transform="translate(-311.3 -136.816)" fill="#e05c60"/>
          <path id="Path_75" data-name="Path 75" d="M400.411,147.612v62.646a61.339,61.339,0,0,1-2.573,9.263V156.875a61.373,61.373,0,0,0,2.573-9.263" transform="translate(-311.51 -135.987)" fill="#e05c60"/>
          <path id="Path_76" data-name="Path 76" d="M398.156,156.122v62.646a66.193,66.193,0,0,1-3.91,8.711V164.832a66.243,66.243,0,0,0,3.91-8.71" transform="translate(-311.827 -135.234)" fill="#e05c60"/>
          <path id="Path_77" data-name="Path 77" d="M394.68,164.124V226.77a74.914,74.914,0,0,1-5.334,8.483V172.607a75.012,75.012,0,0,0,5.334-8.483" transform="translate(-312.261 -134.526)" fill="#e05c60"/>
          <path id="Path_78" data-name="Path 78" d="M389.921,171.917v62.646a88.651,88.651,0,0,1-7.068,8.547V180.464a88.783,88.783,0,0,0,7.068-8.547" transform="translate(-312.836 -133.836)" fill="#e05c60"/>
          <path id="Path_79" data-name="Path 79" d="M383.632,179.769v62.646a109.281,109.281,0,0,1-9.585,9.044V188.812a109.106,109.106,0,0,0,9.585-9.043" transform="translate(-313.615 -133.141)" fill="#e05c60"/>
          <path id="Path_80" data-name="Path 80" d="M375.2,188.077v62.646a140.96,140.96,0,0,1-14.149,10.382V198.459A141.3,141.3,0,0,0,375.2,188.077" transform="translate(-314.765 -132.406)" fill="#e05c60"/>
          <path id="Path_81" data-name="Path 81" d="M363.519,197.615v62.646a207.7,207.7,0,0,1-30.383,15.979V213.593a207.6,207.6,0,0,0,30.383-15.978" transform="translate(-317.235 -131.562)" fill="#e05c60"/>
          <path id="Path_82" data-name="Path 82" d="M334.429,212.294V274.94q-7.582,3.275-15.9,6.3V218.591q8.317-3.021,15.9-6.3" transform="translate(-318.528 -130.263)" fill="#e05c60"/>
        </g>
      </g>
      <g id="Group_38" data-name="Group 38">
        <g id="Group_37" data-name="Group 37" clip-path="url(#clip-path)">
          <path id="Path_84" data-name="Path 84" d="M328.963,225.261v62.646l-128.35-88.328V136.932Z" transform="translate(17.753 12.118)" fill="#ca484c"/>
          <path id="Path_85" data-name="Path 85" d="M418.978,136.932c0,36.18-31.475,67.063-90.015,88.329l-128.35-88.329Z" transform="translate(17.753 12.118)" fill="#ee6564"/>
        </g>
      </g>
      <g id="Group_40" data-name="Group 40" transform="translate(218.366 265.918)">
        <g id="Group_39" data-name="Group 39" clip-path="url(#clip-path-6)">
          <path id="Path_86" data-name="Path 86" d="M320.9,244.3V278.47c-9.565,3.475-19.253,6.5-29.14,9.085V253.384c9.887-2.585,19.576-5.61,29.14-9.085" transform="translate(-192.547 -244.299)" fill="#54361b"/>
          <path id="Path_87" data-name="Path 87" d="M294.8,252.645v34.171a342.913,342.913,0,0,1-37.42,7.557V260.2a342.905,342.905,0,0,0,37.42-7.557" transform="translate(-195.59 -243.56)" fill="#52351b"/>
          <path id="Path_88" data-name="Path 88" d="M259.328,259.588v34.171q-11.726,1.708-23.968,2.716V262.3q12.257-1.009,23.968-2.716" transform="translate(-197.538 -242.946)" fill="#52341a"/>
          <path id="Path_89" data-name="Path 89" d="M237.148,262.083v34.171q-10.76.887-21.988,1.244V263.327q11.238-.359,21.988-1.244" transform="translate(-199.326 -242.725)" fill="#50341a"/>
          <path id="Path_90" data-name="Path 90" d="M216.447,263.227V297.4q-7.791.248-15.834.248V263.475q8.046,0,15.834-.248" transform="translate(-200.613 -242.624)" fill="#4f341a"/>
        </g>
      </g>
      <g id="Group_42" data-name="Group 42">
        <g id="Group_41" data-name="Group 41" clip-path="url(#clip-path)">
          <path id="Path_92" data-name="Path 92" d="M200.613,163.152l128.35,88.329c-39.027,14.178-80.108,20.851-128.35,20.851Z" transform="translate(17.753 14.438)" fill="#6c4623"/>
        </g>
      </g>
    </g>
  </g>
</svg>
