<svg xmlns="http://www.w3.org/2000/svg" width="40" height="30.489" viewBox="0 0 40 30.489">
  <g id="Group_48" data-name="Group 48" transform="translate(-1643.609 -62)">
    <g id="discord" transform="translate(1643.609 62)">
      <path id="Path_25" data-name="Path 25" d="M33.861,63.4a32.989,32.989,0,0,0-8.142-2.525.124.124,0,0,0-.131.062,22.973,22.973,0,0,0-1.014,2.082,30.45,30.45,0,0,0-9.145,0,21.081,21.081,0,0,0-1.03-2.082.128.128,0,0,0-.131-.062A32.894,32.894,0,0,0,6.128,63.4a.117.117,0,0,0-.054.046A33.76,33.76,0,0,0,.165,86.212a.138.138,0,0,0,.052.094A33.171,33.171,0,0,0,10.2,91.355a.129.129,0,0,0,.14-.046,23.709,23.709,0,0,0,2.043-3.324.127.127,0,0,0-.069-.176A21.85,21.85,0,0,1,9.2,86.322a.128.128,0,0,1-.013-.213c.21-.157.419-.321.62-.486a.124.124,0,0,1,.129-.018,23.655,23.655,0,0,0,20.1,0,.123.123,0,0,1,.131.016c.2.165.41.33.621.487a.128.128,0,0,1-.011.213,20.5,20.5,0,0,1-3.122,1.486.128.128,0,0,0-.068.178,26.631,26.631,0,0,0,2.042,3.322.127.127,0,0,0,.14.048,33.06,33.06,0,0,0,10-5.049.128.128,0,0,0,.052-.092,33.538,33.538,0,0,0-5.914-22.768A.1.1,0,0,0,33.861,63.4Zm-20.5,18.269a4.058,4.058,0,0,1,0-8.063,4.058,4.058,0,0,1,0,8.063Zm13.291,0a4.058,4.058,0,0,1,0-8.063,4.058,4.058,0,0,1,0,8.063Z" transform="translate(0.001 -60.871)" fill="#f0484b"/>
    </g>
  </g>
</svg>
