<svg xmlns="http://www.w3.org/2000/svg" width="64.56" height="64.561" viewBox="0 0 64.56 64.561">
  <g id="Group_47" data-name="Group 47" transform="translate(-1040.253 -10907.615)">
    <g id="instagram" transform="translate(1040.253 10907.615)">
      <path id="Path_19" data-name="Path 19" d="M45.327,0H19.233A19.255,19.255,0,0,0,0,19.233V45.328A19.255,19.255,0,0,0,19.233,64.561H45.327A19.255,19.255,0,0,0,64.56,45.328V19.233A19.255,19.255,0,0,0,45.327,0ZM58.065,45.328A12.738,12.738,0,0,1,45.327,58.066H19.233A12.738,12.738,0,0,1,6.495,45.328V19.233A12.738,12.738,0,0,1,19.233,6.495H45.327A12.738,12.738,0,0,1,58.065,19.233V45.328Z" transform="translate(0)" fill="#fee6d7"/>
      <path id="Path_20" data-name="Path 20" d="M149.7,133a16.7,16.7,0,1,0,16.7,16.7A16.717,16.717,0,0,0,149.7,133Zm0,26.9a10.2,10.2,0,1,1,10.2-10.2A10.2,10.2,0,0,1,149.7,159.9Z" transform="translate(-117.417 -117.417)" fill="#fee6d7"/>
      <ellipse id="Ellipse_1" data-name="Ellipse 1" cx="4.001" cy="4.001" rx="4.001" ry="4.001" transform="translate(45.009 11.707)" fill="#fee6d7"/>
    </g>
  </g>
</svg>
