<svg xmlns="http://www.w3.org/2000/svg" width="462" height="77" viewBox="0 0 462 77">
  <g id="Group_51" data-name="Group 51" transform="translate(-729 -1793)">
    <g id="Group_44" data-name="Group 44" transform="translate(-30 30)">
      <rect id="Rectangle_56" data-name="Rectangle 56" width="462" height="77" transform="translate(759 1763)" fill="#f0484b"/>
      <text id="See_collection_on_" data-name="See collection on " transform="translate(907 1808)" fill="#fff" font-size="20" font-family="Jost-Medium, Jost" font-weight="500" letter-spacing="0.03em"><tspan x="-107.7" y="0">SEE COLLECTION ON </tspan></text>
      <text id="Opensea" transform="translate(1133 1808)" fill="#fff" font-size="20" font-family="Jost-Medium, Jost" font-weight="500" letter-spacing="0.03em"><tspan x="-47.55" y="0">OPENSEA</tspan></text>
      <g id="OpenSea-Full-Logo_dark_" data-name="OpenSea-Full-Logo (dark)" transform="translate(1030 1783.587)">
        <path id="Path_93" data-name="Path 93" d="M35.826,17.913A17.913,17.913,0,1,1,17.913,0,17.914,17.914,0,0,1,35.826,17.913Z" fill="#fff"/>
        <path id="Path_94" data-name="Path 94" d="M24.622,38.272l.077-.121,4.66-7.29a.159.159,0,0,1,.28.02c.779,1.745,1.45,3.915,1.136,5.265a8.23,8.23,0,0,1-.917,2c-.053.1-.112.2-.175.3a.158.158,0,0,1-.133.07H24.758A.159.159,0,0,1,24.622,38.272Z" transform="translate(-15.785 -19.757)" fill="#f05751"/>
        <path id="Path_95" data-name="Path 95" d="M43.085,32.7v1.154a.166.166,0,0,1-.1.151,5.738,5.738,0,0,0-2.109,1.436c-1.31,1.824-2.312,4.432-4.549,4.432H26.99A6,6,0,0,1,21,33.866v-.107a.16.16,0,0,1,.16-.16h5.2a.177.177,0,0,1,.169.2,1.776,1.776,0,0,0,.186,1,1.831,1.831,0,0,0,1.642,1.02h2.577V33.8H28.391a.164.164,0,0,1-.132-.258c.028-.042.059-.086.092-.136.241-.342.585-.874.928-1.48a11.589,11.589,0,0,0,.642-1.283c.037-.079.066-.16.1-.239.05-.14.1-.271.138-.4.037-.11.066-.226.1-.335a5.184,5.184,0,0,0,.123-1.174c0-.16-.007-.328-.022-.488s-.029-.35-.052-.525c-.015-.155-.042-.307-.072-.467-.037-.234-.088-.466-.147-.7l-.02-.088c-.044-.16-.081-.313-.132-.473-.145-.5-.313-.992-.49-1.45-.064-.182-.138-.357-.212-.532-.109-.263-.219-.5-.32-.729-.052-.1-.1-.2-.14-.293s-.1-.217-.153-.32c-.037-.079-.079-.153-.109-.226l-.315-.582a.1.1,0,0,1,.116-.149l1.969.534h.006l.007,0,.259.072.285.081.1.029v-1.17A1.018,1.018,0,0,1,31.95,20a1,1,0,0,1,.716.3,1.029,1.029,0,0,1,.3.723v1.737l.21.059a.168.168,0,0,1,.048.024c.052.039.125.1.219.166.074.059.153.131.248.2.19.153.416.35.664.576.066.057.131.116.19.175.32.3.679.648,1.021,1.034.1.109.19.219.285.335s.2.234.285.35c.116.155.241.315.35.482.052.079.11.16.16.239.14.212.263.431.381.65.05.1.1.212.145.32a4.683,4.683,0,0,1,.3.889,1.112,1.112,0,0,1,.042.2v.015a1.686,1.686,0,0,1,.037.278,2.973,2.973,0,0,1-.052.918,3.347,3.347,0,0,1-.109.385c-.044.125-.088.256-.145.379a5.14,5.14,0,0,1-.4.751c-.05.088-.109.182-.167.271s-.131.182-.19.269c-.081.11-.167.226-.256.329a3.5,3.5,0,0,1-.248.313c-.123.145-.241.283-.364.416-.074.086-.153.175-.234.254s-.16.167-.234.241c-.123.123-.226.219-.313.3l-.2.186a.165.165,0,0,1-.109.04H32.963v2.012h1.973a1.846,1.846,0,0,0,1.2-.444,14.392,14.392,0,0,0,1.22-1.2.153.153,0,0,1,.075-.046l5.449-1.575A.161.161,0,0,1,43.085,32.7Z" transform="translate(-13.477 -12.835)" fill="#f05751"/>
      </g>
    </g>
  </g>
</svg>
