<svg xmlns="http://www.w3.org/2000/svg" width="24" height="20" viewBox="0 0 24 20">
  <path id="iconmonstr-reddit-1" d="M24,11.779a2.653,2.653,0,0,0-4.5-1.9,13.7,13.7,0,0,0-6.971-2.046l1.483-4.669,4.016.941-.006.058a2.182,2.182,0,1,0,.153-.785L13.849,2.364a.37.37,0,0,0-.44.249L11.755,7.82a13.856,13.856,0,0,0-7.3,2.025,2.641,2.641,0,1,0-3.138,4.2,4.716,4.716,0,0,0-.086.857C1.231,18.818,6.039,22,11.95,22s10.72-3.182,10.72-7.093a4.748,4.748,0,0,0-.075-.81A2.633,2.633,0,0,0,24,11.779ZM6.776,13.6a1.582,1.582,0,1,1,1.582,1.574A1.581,1.581,0,0,1,6.776,13.6Zm9.061,4.669a5.216,5.216,0,0,1-3.824,1.179l-.013,0-.013,0a5.213,5.213,0,0,1-3.824-1.179.371.371,0,0,1,.526-.523,4.546,4.546,0,0,0,3.3.961l.013,0,.013,0a4.546,4.546,0,0,0,3.3-.962.371.371,0,0,1,.526.524Zm-.189-3.1a1.575,1.575,0,1,1,1.581-1.574,1.579,1.579,0,0,1-1.581,1.574Z" transform="translate(0 -2)" fill="#f0484b"/>
</svg>
