<svg xmlns="http://www.w3.org/2000/svg" width="71.336" height="57.961" viewBox="0 0 71.336 57.961">
  <g id="Group_46" data-name="Group 46" transform="translate(-919.924 -10911.437)">
    <g id="twitter_1_" data-name="twitter (1)" transform="translate(919.924 10911.437)">
      <g id="Group_8" data-name="Group 8" transform="translate(0)">
        <path id="Path_21" data-name="Path 21" d="M71.336,54.862a30.491,30.491,0,0,1-8.427,2.31,14.542,14.542,0,0,0,6.434-8.083,29.226,29.226,0,0,1-9.274,3.54,14.624,14.624,0,0,0-25.3,10,15.058,15.058,0,0,0,.339,3.335,41.4,41.4,0,0,1-30.144-15.3A14.629,14.629,0,0,0,9.461,70.212a14.443,14.443,0,0,1-6.608-1.8v.161A14.692,14.692,0,0,0,14.57,82.942a14.6,14.6,0,0,1-3.834.482,12.931,12.931,0,0,1-2.769-.25A14.764,14.764,0,0,0,21.633,93.361,29.385,29.385,0,0,1,3.5,99.6,27.386,27.386,0,0,1,0,99.4a41.172,41.172,0,0,0,22.435,6.563c26.912,0,41.625-22.293,41.625-41.616,0-.646-.022-1.271-.054-1.89A29.175,29.175,0,0,0,71.336,54.862Z" transform="translate(0 -48)" fill="#fee6d7"/>
      </g>
    </g>
  </g>
</svg>
