<svg xmlns="http://www.w3.org/2000/svg" width="43.333" height="35.208" viewBox="0 0 43.333 35.208">
  <g id="Group_49" data-name="Group 49" transform="translate(-200 -4852.156)">
    <g id="Group_48" data-name="Group 48">
      <g id="twitter_1_" data-name="twitter (1)" transform="translate(200 4852.156)">
        <g id="Group_8" data-name="Group 8" transform="translate(0)">
          <path id="Path_21" data-name="Path 21" d="M43.333,52.168a18.522,18.522,0,0,1-5.119,1.4,8.834,8.834,0,0,0,3.908-4.91,17.754,17.754,0,0,1-5.633,2.15,8.883,8.883,0,0,0-15.367,6.075,9.147,9.147,0,0,0,.206,2.026A25.145,25.145,0,0,1,3.017,49.62a8.886,8.886,0,0,0,2.73,11.873A8.773,8.773,0,0,1,1.733,60.4v.1a8.925,8.925,0,0,0,7.118,8.729,8.866,8.866,0,0,1-2.329.292,7.855,7.855,0,0,1-1.682-.152,8.968,8.968,0,0,0,8.3,6.189A17.85,17.85,0,0,1,2.126,79.344,16.64,16.64,0,0,1,0,79.222a25.01,25.01,0,0,0,13.628,3.987c16.347,0,25.285-13.542,25.285-25.28,0-.393-.014-.772-.033-1.148A17.723,17.723,0,0,0,43.333,52.168Z" transform="translate(0 -48)" fill="#fff"/>
        </g>
      </g>
    </g>
  </g>
</svg>
